<svg version="1.1" xmlns="http://www.w3.org/2000/svg" viewBox="0 0 1718 915" width="1718" height="915">
  <!-- svg-source:excalidraw -->
  
  <defs>
    <style>
      @font-face {
        font-family: "Virgil";
        src: url("https://excalidraw.com/Virgil.woff2");
      }
      @font-face {
        font-family: "Cascadia";
        src: url("https://excalidraw.com/Cascadia.woff2");
      }
    </style>
  </defs>
  <rect x="0" y="0" width="1718" height="915" fill="#ffffff"></rect><g stroke-linecap="round" transform="translate(436 251) rotate(0 207.5 327)"><path d="M0.42 -0.19 C132.92 -0.12, 264.59 0.55, 414.44 0.29 M-0.01 0.26 C159.02 0.84, 318.53 0.02, 415.39 -0.16 M415.63 0.23 C417.24 192.92, 416.77 385.62, 415.4 653.58 M414.62 0.17 C416.57 258.67, 416.67 517.05, 414.7 653.68 M415.86 654.26 C280.21 655.78, 144.85 656.18, 0.82 654.23 M415.15 654.3 C263.11 652.7, 110.98 653.33, -0.03 654.12 M-0.78 654.06 C0.18 498.34, -0.02 344.27, -0.18 0.09 M0.31 653.95 C1.3 461.97, 1.4 269.11, -0.29 -0.07" stroke="#000000" stroke-width="1" fill="none"></path></g><g transform="translate(556 287) rotate(0 88.49999999999994 29.5)"><text x="0" y="40.99999999999999" font-family="Virgil, Segoe UI Emoji" font-size="47.199999999999996px" fill="#000000" text-anchor="start" style="white-space: pre;" direction="ltr">Planning</text></g><g stroke-linecap="round" transform="translate(863 251) rotate(0 207.5 327)"><path d="M-0.63 0.53 C103.67 1.27, 210.39 -0.3, 415.87 -1 M0.07 0.26 C133.43 1.24, 266.59 2.03, 414.77 -0.26 M415.8 -0.1 C412.69 136.79, 413.79 273.26, 414.93 654.71 M415.26 0.05 C416.13 154.84, 416.23 309.3, 414.99 653.64 M415.8 654.28 C279.56 655.62, 143.07 654.24, -1.08 653.73 M414.84 654.13 C301.89 654.38, 188.49 654.64, -0.43 654.12 M0.24 654.5 C-2.04 394.48, -2.39 132.89, 0.03 -0.24 M-0.37 653.8 C-2.06 508.76, -2.74 363.3, 0.4 0.28" stroke="#000000" stroke-width="1" fill="none"></path></g><g stroke-linecap="round" transform="translate(1293 251) rotate(0 207.5 327)"><path d="M0.09 1.02 C144.91 2.1, 287.25 3.2, 414.27 -0.2 M0.25 0.27 C112.65 -1.39, 225.71 -2.02, 415.38 0.18 M415.03 0.32 C413.39 211.63, 412.75 422.51, 415.06 654.78 M414.66 -0.38 C416.04 141.89, 416.39 283.56, 415.17 654.36 M413.97 655.07 C310.92 653.57, 206.6 653.9, -0.82 654.84 M414.48 654.3 C330.27 655.32, 245.09 655.98, -0.16 653.58 M-0.61 653.43 C1 458.18, 0.94 261.38, 0.59 0.11 M-0.28 653.73 C0.88 500.28, 1.3 346.83, 0.06 0.21" stroke="#000000" stroke-width="1" fill="none"></path></g><g transform="translate(1329 277) rotate(0 169.5 30)"><text x="0" y="42" font-family="Virgil, Segoe UI Emoji" font-size="47.199999999999996px" fill="#000000" text-anchor="start" style="white-space: pre;" direction="ltr">Implementation</text></g><g transform="translate(1011.8571428571429 277) rotate(0 56.5 30)"><text x="0" y="42" font-family="Virgil, Segoe UI Emoji" font-size="47.199999999999996px" fill="#000000" text-anchor="start" style="white-space: pre;" direction="ltr">Logic</text></g><g transform="translate(452.6428571428569 531.0357142857143) rotate(0 196.49740259740258 145.65171351559496)"><text x="0" y="18.48212973010817" font-family="Virgil, Segoe UI Emoji" font-size="21.185703784086535px" fill="#000000" text-anchor="start" style="white-space: pre;" direction="ltr">* Decompose parts</text><text x="0" y="44.96425946021634" font-family="Virgil, Segoe UI Emoji" font-size="21.185703784086535px" fill="#000000" text-anchor="start" style="white-space: pre;" direction="ltr">* Identify:</text><text x="0" y="71.44638919032451" font-family="Virgil, Segoe UI Emoji" font-size="21.185703784086535px" fill="#000000" text-anchor="start" style="white-space: pre;" direction="ltr">  * keywords</text><text x="0" y="97.92851892043268" font-family="Virgil, Segoe UI Emoji" font-size="21.185703784086535px" fill="#000000" text-anchor="start" style="white-space: pre;" direction="ltr">  * conditions</text><text x="0" y="124.41064865054085" font-family="Virgil, Segoe UI Emoji" font-size="21.185703784086535px" fill="#000000" text-anchor="start" style="white-space: pre;" direction="ltr">  * instructions until an end condition</text><text x="0" y="150.89277838064902" font-family="Virgil, Segoe UI Emoji" font-size="21.185703784086535px" fill="#000000" text-anchor="start" style="white-space: pre;" direction="ltr">  * instructions for iterable</text><text x="0" y="177.3749081107572" font-family="Virgil, Segoe UI Emoji" font-size="21.185703784086535px" fill="#000000" text-anchor="start" style="white-space: pre;" direction="ltr">  * input /output</text><text x="0" y="203.85703784086536" font-family="Virgil, Segoe UI Emoji" font-size="21.185703784086535px" fill="#000000" text-anchor="start" style="white-space: pre;" direction="ltr">* Questions</text><text x="0" y="230.33916757097353" font-family="Virgil, Segoe UI Emoji" font-size="21.185703784086535px" fill="#000000" text-anchor="start" style="white-space: pre;" direction="ltr">  * Write Questions</text><text x="0" y="256.8212973010817" font-family="Virgil, Segoe UI Emoji" font-size="21.185703784086535px" fill="#000000" text-anchor="start" style="white-space: pre;" direction="ltr">  * Refine Questions</text><text x="0" y="283.30342703118987" font-family="Virgil, Segoe UI Emoji" font-size="21.185703784086535px" fill="#000000" text-anchor="start" style="white-space: pre;" direction="ltr">  * Answer your questions</text></g><g transform="translate(898.8571428571427 525.8571428571429) rotate(0 175 66.28787878787875)"><text x="0" y="18.515151515151512" font-family="Virgil, Segoe UI Emoji" font-size="21.21212121212121px" fill="#000000" text-anchor="start" style="white-space: pre;" direction="ltr">* Write function signature</text><text x="0" y="45.030303030303024" font-family="Virgil, Segoe UI Emoji" font-size="21.21212121212121px" fill="#000000" text-anchor="start" style="white-space: pre;" direction="ltr">* add "pass" keyword</text><text x="0" y="71.54545454545453" font-family="Virgil, Segoe UI Emoji" font-size="21.21212121212121px" fill="#000000" text-anchor="start" style="white-space: pre;" direction="ltr">* write each individual instruction</text><text x="0" y="98.06060606060605" font-family="Virgil, Segoe UI Emoji" font-size="21.21212121212121px" fill="#000000" text-anchor="start" style="white-space: pre;" direction="ltr">  * Ignore order at first</text><text x="0" y="124.57575757575756" font-family="Virgil, Segoe UI Emoji" font-size="21.21212121212121px" fill="#000000" text-anchor="start" style="white-space: pre;" direction="ltr">* sequence each instruction</text></g><g transform="translate(1303.4285714285716 515.7142857142857) rotate(0 200.5 87.5)"><text x="0" y="18" font-family="Virgil, Segoe UI Emoji" font-size="20px" fill="#000000" text-anchor="start" style="white-space: pre;" direction="ltr">* Simple test:</text><text x="0" y="43" font-family="Virgil, Segoe UI Emoji" font-size="20px" fill="#000000" text-anchor="start" style="white-space: pre;" direction="ltr">  * Write code that executes your code</text><text x="0" y="68" font-family="Virgil, Segoe UI Emoji" font-size="20px" fill="#000000" text-anchor="start" style="white-space: pre;" direction="ltr">* turn logic to code one line at a time</text><text x="0" y="93" font-family="Virgil, Segoe UI Emoji" font-size="20px" fill="#000000" text-anchor="start" style="white-space: pre;" direction="ltr">* execute after each line.</text><text x="0" y="118" font-family="Virgil, Segoe UI Emoji" font-size="20px" fill="#000000" text-anchor="start" style="white-space: pre;" direction="ltr">* if there is an error at any point,</text><text x="0" y="143" font-family="Virgil, Segoe UI Emoji" font-size="20px" fill="#000000" text-anchor="start" style="white-space: pre;" direction="ltr">    * stop and debug</text><text x="0" y="168" font-family="Virgil, Segoe UI Emoji" font-size="20px" fill="#000000" text-anchor="start" style="white-space: pre;" direction="ltr"></text></g><g transform="translate(497 371) rotate(0 148 24.26229508196721)"><text x="0" y="34.52459016393441" font-family="Virgil, Segoe UI Emoji" font-size="38.17267759562843px" fill="#000000" text-anchor="start" style="white-space: pre;" direction="ltr">Markdown notes</text></g><g transform="translate(953.8571428571429 400) rotate(0 122 24)"><text x="0" y="34" font-family="Virgil, Segoe UI Emoji" font-size="38.17267759562843px" fill="#000000" text-anchor="start" style="white-space: pre;" direction="ltr">(Pseudocode)</text></g><g transform="translate(564.1428571428571 426) rotate(0 85 24)"><text x="0" y="34" font-family="Virgil, Segoe UI Emoji" font-size="38.17267759562843px" fill="#000000" text-anchor="start" style="white-space: pre;" direction="ltr">Diagrams</text></g><g transform="translate(616 29) rotate(0 51.5 91)"><text x="0" y="127" font-family="Virgil, Segoe UI Emoji" font-size="143.33333333333326px" fill="#000000" text-anchor="start" style="white-space: pre;" direction="ltr">2</text></g><g transform="translate(1029 23) rotate(0 48.5 89.5)"><text x="0" y="125" font-family="Virgil, Segoe UI Emoji" font-size="140.5501618122977px" fill="#000000" text-anchor="start" style="white-space: pre;" direction="ltr">3</text></g><g transform="translate(1478 10) rotate(0 46.5 91)"><text x="0" y="127" font-family="Virgil, Segoe UI Emoji" font-size="143.33333333333326px" fill="#000000" text-anchor="start" style="white-space: pre;" direction="ltr">4</text></g><g transform="translate(509.5 191.5) rotate(0 350.9599999999996 20.5)"><text x="0" y="29" font-family="Virgil, Segoe UI Emoji" font-size="32.79999999999998px" fill="#000000" text-anchor="start" style="white-space: pre;" direction="ltr">(Go back a step when you feel overloaded)</text></g><g stroke-linecap="round" transform="translate(10 251) rotate(0 207.5 327)"><path d="M-0.24 0.66 C123 3.23, 247.55 1.17, 413.92 0.48 M-0.04 -0.22 C134.7 0.26, 268.5 0.06, 415.39 0.33 M415.5 0.42 C415.68 142.28, 414.95 285.63, 414.2 654.44 M415.14 0.06 C414.43 215.17, 414.72 430.16, 414.87 653.94 M415.15 654.62 C249.79 654.85, 85.43 654.85, 0.04 654.25 M415.15 654.05 C310.08 654.7, 205.13 655.14, 0.11 654.45 M0.34 653.79 C1.42 489.8, 1.09 325.32, 0.69 -0.66 M0.32 653.73 C2.48 405.7, 2.33 156.82, -0.39 0.38" stroke="#000000" stroke-width="1" fill="none"></path></g><g transform="translate(61 373.8571428571429) rotate(0 147.99999999999997 24.26229508196721)"><text x="0" y="34.52459016393441" font-family="Virgil, Segoe UI Emoji" font-size="38.17267759562843px" fill="#000000" text-anchor="start" style="white-space: pre;" direction="ltr">Markdown notes</text></g><g transform="translate(40.85714285714289 533.1071428571429) rotate(0 172.5 50)"><text x="0" y="18" font-family="Virgil, Segoe UI Emoji" font-size="20px" fill="#000000" text-anchor="start" style="white-space: pre;" direction="ltr">* Research anything and everything</text><text x="0" y="43" font-family="Virgil, Segoe UI Emoji" font-size="20px" fill="#000000" text-anchor="start" style="white-space: pre;" direction="ltr">you need until you can state</text><text x="0" y="68" font-family="Virgil, Segoe UI Emoji" font-size="20px" fill="#000000" text-anchor="start" style="white-space: pre;" direction="ltr">the problem in your own words</text><text x="0" y="93" font-family="Virgil, Segoe UI Emoji" font-size="20px" fill="#000000" text-anchor="start" style="white-space: pre;" direction="ltr">with your eyes closed.</text></g><g transform="translate(202 29) rotate(0 20 91)"><text x="0" y="127" font-family="Virgil, Segoe UI Emoji" font-size="143.33333333333326px" fill="#000000" text-anchor="start" style="white-space: pre;" direction="ltr">1</text></g><g transform="translate(36.571428571428555 662.75) rotate(0 118.5 12.5)"><text x="0" y="18" font-family="Virgil, Segoe UI Emoji" font-size="20px" fill="#000000" text-anchor="start" style="white-space: pre;" direction="ltr">* What does this mean?</text></g><g transform="translate(36.571428571428555 701.5) rotate(0 161.5 12.5)"><text x="0" y="18" font-family="Virgil, Segoe UI Emoji" font-size="20px" fill="#000000" text-anchor="start" style="white-space: pre;" direction="ltr">* What am I being asked to do?</text></g><g transform="translate(37.821428571428555 742.75) rotate(0 103 12.5)"><text x="0" y="18" font-family="Virgil, Segoe UI Emoji" font-size="20px" fill="#000000" text-anchor="start" style="white-space: pre;" direction="ltr">* Provide an analogy</text></g><g transform="translate(112.75 285.1071428571429) rotate(0 104.5 30)"><text x="0" y="42" font-family="Virgil, Segoe UI Emoji" font-size="47.199999999999996px" fill="#000000" text-anchor="start" style="white-space: pre;" direction="ltr">Research</text></g><g transform="translate(37.821428571428555 784.1785714285713) rotate(0 176 12.5)"><text x="0" y="18" font-family="Virgil, Segoe UI Emoji" font-size="20px" fill="#000000" text-anchor="start" style="white-space: pre;" direction="ltr">* Research any unknown vocabulary.</text></g><g transform="translate(1442.428571428571 370) rotate(0 56.5 24)"><text x="0" y="34" font-family="Virgil, Segoe UI Emoji" font-size="38.17267759562843px" fill="#000000" text-anchor="start" style="white-space: pre;" direction="ltr">(code)</text></g></svg>